<svg width="38" height="43" viewBox="0 0 38 43" fill="none" xmlns="http://www.w3.org/2000/svg">
<path d="M19 7.05835C20.6797 7.05835 22.2906 7.80199 23.4784 9.12569C24.6661 10.4494 25.3333 12.2447 25.3333 14.1167C25.3333 15.9887 24.6661 17.784 23.4784 19.1077C22.2906 20.4314 20.6797 21.175 19 21.175C17.3203 21.175 15.7094 20.4314 14.5217 19.1077C13.3339 17.784 12.6667 15.9887 12.6667 14.1167C12.6667 12.2447 13.3339 10.4494 14.5217 9.12569C15.7094 7.80199 17.3203 7.05835 19 7.05835V7.05835ZM19 24.7042C25.9983 24.7042 31.6667 27.8628 31.6667 31.7625V35.2917H6.33334V31.7625C6.33334 27.8628 12.0017 24.7042 19 24.7042Z" fill="black"/>
</svg>
