<svg width="21" height="21" viewBox="0 0 21 21" fill="none" xmlns="http://www.w3.org/2000/svg">
<path d="M15.3028 1.34583H5.90852C3.31435 1.34583 1.21136 3.35529 1.21136 5.83408V14.8106C1.21136 17.2894 3.31435 19.2989 5.90852 19.2989H15.3028C17.897 19.2989 20 17.2894 20 14.8106V5.83408C20 3.35529 17.897 1.34583 15.3028 1.34583Z" stroke="white" stroke-width="2" stroke-linecap="round" stroke-linejoin="round"/>
<path d="M14.3633 9.75681C14.4792 10.5039 14.3457 11.2669 13.9817 11.9372C13.6177 12.6076 13.0417 13.1512 12.3357 13.4908C11.6297 13.8303 10.8296 13.9485 10.0493 13.8285C9.26893 13.7085 8.54804 13.3565 7.98916 12.8224C7.43027 12.2884 7.06185 11.5996 6.93628 10.8539C6.81071 10.1083 6.9344 9.34379 7.28975 8.66919C7.64509 7.99458 8.21401 7.44422 8.91557 7.09638C9.61713 6.74854 10.4156 6.62093 11.1974 6.73171C11.9949 6.84471 12.7333 7.19981 13.3034 7.74454C13.8734 8.28928 14.2451 8.99477 14.3633 9.75681Z" stroke="white" stroke-width="2" stroke-linecap="round" stroke-linejoin="round"/>
</svg>
