<svg width="209" height="69" viewBox="0 0 209 69" fill="none" xmlns="http://www.w3.org/2000/svg">
<path d="M2.15625 27.0078C2.15625 20.9766 3.77344 16.3281 7.00781 13.0625C9.82031 10.2188 13.3984 8.79688 17.7422 8.79688C23.5547 8.79688 27.8047 10.7031 30.4922 14.5156C31.9766 16.6562 32.7734 18.8047 32.8828 20.9609H25.6641C25.1953 19.3047 24.5938 18.0547 23.8594 17.2109C22.5469 15.7109 20.6016 14.9609 18.0234 14.9609C15.3984 14.9609 13.3281 16.0234 11.8125 18.1484C10.2969 20.2578 9.53906 23.25 9.53906 27.125C9.53906 31 10.3359 33.9062 11.9297 35.8438C13.5391 37.7656 15.5781 38.7266 18.0469 38.7266C20.5781 38.7266 22.5078 37.8984 23.8359 36.2422C24.5703 35.3516 25.1797 34.0156 25.6641 32.2344H32.8125C32.1875 36 30.5859 39.0625 28.0078 41.4219C25.4453 43.7812 22.1562 44.9609 18.1406 44.9609C13.1719 44.9609 9.26562 43.3672 6.42188 40.1797C3.57812 36.9766 2.15625 32.5859 2.15625 27.0078ZM53.625 38.8438C56.4844 38.8438 58.75 37.7891 60.4219 35.6797C62.1094 33.5703 62.9531 30.5703 62.9531 26.6797C62.9531 22.8047 62.1094 19.8125 60.4219 17.7031C58.75 15.5781 56.4844 14.5156 53.625 14.5156C50.7656 14.5156 48.4844 15.5703 46.7812 17.6797C45.0781 19.7891 44.2266 22.7891 44.2266 26.6797C44.2266 30.5703 45.0781 33.5703 46.7812 35.6797C48.4844 37.7891 50.7656 38.8438 53.625 38.8438ZM70.1719 26.6797C70.1719 32.8828 68.4297 37.6328 64.9453 40.9297C62.3359 43.6172 58.5625 44.9609 53.625 44.9609C48.6875 44.9609 44.9141 43.6172 42.3047 40.9297C38.8047 37.6328 37.0547 32.8828 37.0547 26.6797C37.0547 20.3516 38.8047 15.6016 42.3047 12.4297C44.9141 9.74219 48.6875 8.39844 53.625 8.39844C58.5625 8.39844 62.3359 9.74219 64.9453 12.4297C68.4297 15.6016 70.1719 20.3516 70.1719 26.6797ZM75.7031 9.45312H82.9219V37.7891H100.031V44H75.7031V9.45312ZM120.328 38.8438C123.188 38.8438 125.453 37.7891 127.125 35.6797C128.812 33.5703 129.656 30.5703 129.656 26.6797C129.656 22.8047 128.812 19.8125 127.125 17.7031C125.453 15.5781 123.188 14.5156 120.328 14.5156C117.469 14.5156 115.188 15.5703 113.484 17.6797C111.781 19.7891 110.93 22.7891 110.93 26.6797C110.93 30.5703 111.781 33.5703 113.484 35.6797C115.188 37.7891 117.469 38.8438 120.328 38.8438ZM136.875 26.6797C136.875 32.8828 135.133 37.6328 131.648 40.9297C129.039 43.6172 125.266 44.9609 120.328 44.9609C115.391 44.9609 111.617 43.6172 109.008 40.9297C105.508 37.6328 103.758 32.8828 103.758 26.6797C103.758 20.3516 105.508 15.6016 109.008 12.4297C111.617 9.74219 115.391 8.39844 120.328 8.39844C125.266 8.39844 129.039 9.74219 131.648 12.4297C135.133 15.6016 136.875 20.3516 136.875 26.6797ZM149.625 15.4531V24.7344H157.805C159.43 24.7344 160.648 24.5469 161.461 24.1719C162.898 23.5156 163.617 22.2188 163.617 20.2812C163.617 18.1875 162.922 16.7812 161.531 16.0625C160.75 15.6563 159.578 15.4531 158.016 15.4531H149.625ZM159.516 9.45312C161.938 9.5 163.797 9.79688 165.094 10.3438C166.406 10.8906 167.516 11.6953 168.422 12.7578C169.172 13.6328 169.766 14.6016 170.203 15.6641C170.641 16.7266 170.859 17.9375 170.859 19.2969C170.859 20.9375 170.445 22.5547 169.617 24.1484C168.789 25.7266 167.422 26.8438 165.516 27.5C167.109 28.1406 168.234 29.0547 168.891 30.2422C169.562 31.4141 169.898 33.2109 169.898 35.6328V37.9531C169.898 39.5312 169.961 40.6016 170.086 41.1641C170.273 42.0547 170.711 42.7109 171.398 43.1328V44H163.453C163.234 43.2344 163.078 42.6172 162.984 42.1484C162.797 41.1797 162.695 40.1875 162.68 39.1719L162.633 35.9609C162.602 33.7578 162.195 32.2891 161.414 31.5547C160.648 30.8203 159.203 30.4531 157.078 30.4531H149.625V44H142.57V9.45312H159.516ZM182.32 33.3359C182.539 34.9141 182.969 36.0938 183.609 36.875C184.781 38.2969 186.789 39.0078 189.633 39.0078C191.336 39.0078 192.719 38.8203 193.781 38.4453C195.797 37.7266 196.805 36.3906 196.805 34.4375C196.805 33.2969 196.305 32.4141 195.305 31.7891C194.305 31.1797 192.734 30.6406 190.594 30.1719L186.938 29.3516C183.344 28.5391 180.859 27.6562 179.484 26.7031C177.156 25.1094 175.992 22.6172 175.992 19.2266C175.992 16.1328 177.117 13.5625 179.367 11.5156C181.617 9.46875 184.922 8.44531 189.281 8.44531C192.922 8.44531 196.023 9.41406 198.586 11.3516C201.164 13.2734 202.516 16.0703 202.641 19.7422H195.703C195.578 17.6641 194.672 16.1875 192.984 15.3125C191.859 14.7344 190.461 14.4453 188.789 14.4453C186.93 14.4453 185.445 14.8203 184.336 15.5703C183.227 16.3203 182.672 17.3672 182.672 18.7109C182.672 19.9453 183.219 20.8672 184.312 21.4766C185.016 21.8828 186.516 22.3594 188.812 22.9062L194.766 24.3359C197.375 24.9609 199.344 25.7969 200.672 26.8438C202.734 28.4688 203.766 30.8203 203.766 33.8984C203.766 37.0547 202.555 39.6797 200.133 41.7734C197.727 43.8516 194.32 44.8906 189.914 44.8906C185.414 44.8906 181.875 43.8672 179.297 41.8203C176.719 39.7578 175.43 36.9297 175.43 33.3359H182.32Z" fill="black"/>
<path d="M168.955 60.7598C168.987 61.3294 169.121 61.792 169.358 62.1475C169.81 62.8128 170.605 63.1455 171.744 63.1455C172.255 63.1455 172.719 63.0726 173.139 62.9268C173.95 62.6442 174.355 62.1383 174.355 61.4092C174.355 60.8623 174.185 60.4727 173.843 60.2402C173.496 60.0124 172.954 59.8141 172.216 59.6455L170.855 59.3379C169.967 59.1374 169.338 58.9163 168.969 58.6748C168.331 58.2555 168.012 57.6289 168.012 56.7949C168.012 55.8926 168.324 55.152 168.948 54.5732C169.573 53.9945 170.457 53.7051 171.601 53.7051C172.653 53.7051 173.547 53.9603 174.28 54.4707C175.019 54.9766 175.388 55.7878 175.388 56.9043H174.109C174.041 56.3665 173.895 55.9541 173.672 55.667C173.257 55.1429 172.553 54.8809 171.56 54.8809C170.757 54.8809 170.181 55.0495 169.83 55.3867C169.479 55.724 169.304 56.1159 169.304 56.5625C169.304 57.0547 169.509 57.4147 169.919 57.6426C170.188 57.7884 170.796 57.9707 171.744 58.1895L173.152 58.5107C173.831 58.6657 174.355 58.8776 174.725 59.1465C175.363 59.6159 175.682 60.2972 175.682 61.1904C175.682 62.3024 175.276 63.0977 174.465 63.5762C173.658 64.0547 172.719 64.2939 171.648 64.2939C170.4 64.2939 169.422 63.9749 168.716 63.3369C168.009 62.7035 167.663 61.8444 167.677 60.7598H168.955ZM177.486 54.6348H178.73V56.6787H179.899V57.6836H178.73V62.4619C178.73 62.7171 178.817 62.888 178.99 62.9746C179.086 63.0247 179.245 63.0498 179.469 63.0498C179.528 63.0498 179.592 63.0498 179.66 63.0498C179.729 63.0452 179.808 63.0384 179.899 63.0293V64C179.758 64.041 179.61 64.0706 179.455 64.0889C179.305 64.1071 179.141 64.1162 178.963 64.1162C178.389 64.1162 177.999 63.9704 177.794 63.6787C177.589 63.3825 177.486 62.9997 177.486 62.5303V57.6836H176.495V56.6787H177.486V54.6348ZM182.367 56.6787V61.5391C182.367 61.9128 182.426 62.2181 182.545 62.4551C182.764 62.8926 183.172 63.1113 183.769 63.1113C184.625 63.1113 185.209 62.7285 185.519 61.9629C185.687 61.5527 185.771 60.9899 185.771 60.2744V56.6787H187.002V64H185.84L185.854 62.9199C185.694 63.1979 185.496 63.4326 185.259 63.624C184.789 64.0068 184.22 64.1982 183.55 64.1982C182.506 64.1982 181.795 63.8496 181.417 63.1523C181.212 62.7786 181.109 62.2796 181.109 61.6553V56.6787H182.367ZM189.709 60.4248C189.709 61.2087 189.875 61.8649 190.208 62.3936C190.541 62.9222 191.074 63.1865 191.808 63.1865C192.377 63.1865 192.844 62.9427 193.209 62.4551C193.578 61.9629 193.763 61.2588 193.763 60.3428C193.763 59.4176 193.574 58.734 193.195 58.292C192.817 57.8454 192.35 57.6221 191.794 57.6221C191.174 57.6221 190.671 57.859 190.283 58.333C189.9 58.807 189.709 59.5042 189.709 60.4248ZM191.562 56.5488C192.122 56.5488 192.591 56.6673 192.97 56.9043C193.188 57.041 193.437 57.2803 193.715 57.6221V53.9238H194.897V64H193.79V62.9814C193.503 63.4326 193.163 63.7585 192.771 63.959C192.38 64.1595 191.931 64.2598 191.425 64.2598C190.609 64.2598 189.903 63.918 189.306 63.2344C188.709 62.5462 188.41 61.6325 188.41 60.4932C188.41 59.4268 188.681 58.5039 189.224 57.7246C189.771 56.9408 190.55 56.5488 191.562 56.5488ZM196.723 56.7129H197.974V64H196.723V56.7129ZM196.723 53.958H197.974V55.3525H196.723V53.958ZM202.745 63.207C203.561 63.207 204.119 62.8994 204.42 62.2842C204.725 61.6644 204.878 60.9762 204.878 60.2197C204.878 59.5361 204.769 58.9801 204.55 58.5518C204.203 57.8773 203.606 57.54 202.759 57.54C202.007 57.54 201.46 57.8271 201.118 58.4014C200.776 58.9756 200.605 59.6683 200.605 60.4795C200.605 61.2588 200.776 61.9082 201.118 62.4277C201.46 62.9473 202.002 63.207 202.745 63.207ZM202.793 56.4668C203.736 56.4668 204.534 56.7812 205.186 57.4102C205.837 58.0391 206.163 58.9642 206.163 60.1855C206.163 61.3659 205.876 62.3411 205.302 63.1113C204.728 63.8815 203.837 64.2666 202.629 64.2666C201.622 64.2666 200.822 63.9271 200.229 63.248C199.637 62.5645 199.341 61.6484 199.341 60.5C199.341 59.2695 199.653 58.2897 200.277 57.5605C200.902 56.8314 201.74 56.4668 202.793 56.4668Z" fill="black"/>
</svg>
