<svg width="26" height="26" viewBox="0 0 26 26" fill="none" xmlns="http://www.w3.org/2000/svg">
<path d="M17.6719 12.1875H13.8125V8.32812C13.8125 8.21641 13.7211 8.125 13.6094 8.125H12.3906C12.2789 8.125 12.1875 8.21641 12.1875 8.32812V12.1875H8.32812C8.21641 12.1875 8.125 12.2789 8.125 12.3906V13.6094C8.125 13.7211 8.21641 13.8125 8.32812 13.8125H12.1875V17.6719C12.1875 17.7836 12.2789 17.875 12.3906 17.875H13.6094C13.7211 17.875 13.8125 17.7836 13.8125 17.6719V13.8125H17.6719C17.7836 13.8125 17.875 13.7211 17.875 13.6094V12.3906C17.875 12.2789 17.7836 12.1875 17.6719 12.1875Z" fill="white"/>
<path d="M13 1.625C6.71836 1.625 1.625 6.71836 1.625 13C1.625 19.2816 6.71836 24.375 13 24.375C19.2816 24.375 24.375 19.2816 24.375 13C24.375 6.71836 19.2816 1.625 13 1.625ZM13 22.4453C7.78477 22.4453 3.55469 18.2152 3.55469 13C3.55469 7.78477 7.78477 3.55469 13 3.55469C18.2152 3.55469 22.4453 7.78477 22.4453 13C22.4453 18.2152 18.2152 22.4453 13 22.4453Z" fill="white"/>
</svg>
