<svg width="89" height="89" viewBox="0 0 89 89" fill="none" xmlns="http://www.w3.org/2000/svg">
<circle cx="44.5" cy="44.5" r="44.5" fill="white"/>
<path d="M45 25C47.6522 25 50.1957 26.0536 52.0711 27.9289C53.9464 29.8043 55 32.3478 55 35C55 37.6522 53.9464 40.1957 52.0711 42.0711C50.1957 43.9464 47.6522 45 45 45C42.3478 45 39.8043 43.9464 37.9289 42.0711C36.0536 40.1957 35 37.6522 35 35C35 32.3478 36.0536 29.8043 37.9289 27.9289C39.8043 26.0536 42.3478 25 45 25ZM45 50C56.05 50 65 54.475 65 60V65H25V60C25 54.475 33.95 50 45 50Z" fill="black"/>
</svg>
