<svg width="59" height="40" viewBox="0 0 59 40" fill="none" xmlns="http://www.w3.org/2000/svg">
<path d="M1.63379 10.7031C1.67025 11.1133 1.77279 11.4277 1.94141 11.6465C2.2513 12.043 2.78906 12.2412 3.55469 12.2412C4.01042 12.2412 4.41146 12.1432 4.75781 11.9473C5.10417 11.7467 5.27734 11.4391 5.27734 11.0244C5.27734 10.71 5.13835 10.4707 4.86035 10.3066C4.68262 10.2064 4.33171 10.0902 3.80762 9.95801L2.83008 9.71191C2.20573 9.55697 1.74544 9.38379 1.44922 9.19238C0.920573 8.8597 0.65625 8.39941 0.65625 7.81152C0.65625 7.11882 0.904622 6.55827 1.40137 6.12988C1.90267 5.7015 2.57487 5.4873 3.41797 5.4873C4.52083 5.4873 5.31608 5.81087 5.80371 6.45801C6.10905 6.86816 6.25716 7.31022 6.24805 7.78418H5.08594C5.06315 7.50618 4.96517 7.25326 4.79199 7.02539C4.50944 6.70182 4.01953 6.54004 3.32227 6.54004C2.85742 6.54004 2.50423 6.62891 2.2627 6.80664C2.02572 6.98438 1.90723 7.21908 1.90723 7.51074C1.90723 7.82975 2.06445 8.08496 2.37891 8.27637C2.5612 8.3903 2.83008 8.49056 3.18555 8.57715L3.99902 8.77539C4.88314 8.98958 5.47559 9.19694 5.77637 9.39746C6.25488 9.71191 6.49414 10.2064 6.49414 10.8809C6.49414 11.5326 6.24577 12.0954 5.74902 12.5693C5.25684 13.0433 4.50488 13.2803 3.49316 13.2803C2.40397 13.2803 1.63151 13.0342 1.17578 12.542C0.724609 12.0452 0.483073 11.4323 0.451172 10.7031H1.63379ZM8.46973 5.67871L9.87793 11.4482L11.3066 5.67871H12.6875L14.123 11.4141L15.6201 5.67871H16.8506L14.7246 13H13.4463L11.9561 7.33301L10.5137 13H9.23535L7.12305 5.67871H8.46973ZM18.0195 5.71289H19.2705V13H18.0195V5.71289ZM18.0195 2.95801H19.2705V4.35254H18.0195V2.95801ZM24.2266 12.1729C24.8008 12.1729 25.277 11.9336 25.6553 11.4551C26.0381 10.972 26.2295 10.252 26.2295 9.29492C26.2295 8.71159 26.1452 8.21029 25.9766 7.79102C25.6576 6.98438 25.0742 6.58105 24.2266 6.58105C23.3743 6.58105 22.791 7.00716 22.4766 7.85938C22.3079 8.3151 22.2236 8.89388 22.2236 9.5957C22.2236 10.1608 22.3079 10.6416 22.4766 11.0381C22.7956 11.7946 23.3789 12.1729 24.2266 12.1729ZM21.041 5.71289H22.2373V6.68359C22.4834 6.35091 22.7523 6.09342 23.0439 5.91113C23.4587 5.6377 23.9463 5.50098 24.5068 5.50098C25.3363 5.50098 26.0404 5.81999 26.6191 6.45801C27.1979 7.09147 27.4873 7.99837 27.4873 9.17871C27.4873 10.7738 27.0703 11.9131 26.2363 12.5967C25.7077 13.0296 25.0924 13.2461 24.3906 13.2461C23.8392 13.2461 23.3766 13.1253 23.0029 12.8838C22.7842 12.7471 22.5404 12.5124 22.2715 12.1797V15.9189H21.041V5.71289ZM31.9785 5.51465C32.498 5.51465 33.0016 5.6377 33.4893 5.88379C33.9769 6.12533 34.3483 6.43978 34.6035 6.82715C34.8496 7.19629 35.0137 7.62695 35.0957 8.11914C35.1686 8.45638 35.2051 8.99414 35.2051 9.73242H29.8389C29.8617 10.4753 30.0371 11.0723 30.3652 11.5234C30.6934 11.9701 31.2015 12.1934 31.8896 12.1934C32.5322 12.1934 33.0449 11.9814 33.4277 11.5576C33.6465 11.3115 33.8014 11.0267 33.8926 10.7031H35.1025C35.0706 10.972 34.9635 11.2728 34.7812 11.6055C34.6035 11.9336 34.403 12.2025 34.1797 12.4121C33.806 12.7767 33.3434 13.0228 32.792 13.1504C32.4958 13.2233 32.1608 13.2598 31.7871 13.2598C30.8757 13.2598 30.1032 12.9294 29.4697 12.2686C28.8363 11.6032 28.5195 10.6735 28.5195 9.47949C28.5195 8.30371 28.8385 7.34896 29.4766 6.61523C30.1146 5.88151 30.9486 5.51465 31.9785 5.51465ZM33.9404 8.75488C33.8903 8.22168 33.7741 7.79557 33.5918 7.47656C33.2546 6.88411 32.6917 6.58789 31.9033 6.58789C31.3382 6.58789 30.8643 6.79297 30.4814 7.20312C30.0986 7.60872 29.8958 8.12598 29.873 8.75488H33.9404ZM41.8496 5.67871V10.5391C41.8496 10.9128 41.9089 11.2181 42.0273 11.4551C42.2461 11.8926 42.654 12.1113 43.251 12.1113C44.1077 12.1113 44.6911 11.7285 45.001 10.9629C45.1696 10.5527 45.2539 9.98991 45.2539 9.27441V5.67871H46.4844V13H45.3223L45.3359 11.9199C45.1764 12.1979 44.9782 12.4326 44.7412 12.624C44.2718 13.0068 43.7021 13.1982 43.0322 13.1982C41.9886 13.1982 41.2777 12.8496 40.8994 12.1523C40.6943 11.7786 40.5918 11.2796 40.5918 10.6553V5.67871H41.8496ZM51.502 12.1729C52.0762 12.1729 52.5524 11.9336 52.9307 11.4551C53.3135 10.972 53.5049 10.252 53.5049 9.29492C53.5049 8.71159 53.4206 8.21029 53.252 7.79102C52.9329 6.98438 52.3496 6.58105 51.502 6.58105C50.6497 6.58105 50.0664 7.00716 49.752 7.85938C49.5833 8.3151 49.499 8.89388 49.499 9.5957C49.499 10.1608 49.5833 10.6416 49.752 11.0381C50.071 11.7946 50.6543 12.1729 51.502 12.1729ZM48.3164 5.71289H49.5127V6.68359C49.7588 6.35091 50.0277 6.09342 50.3193 5.91113C50.734 5.6377 51.2217 5.50098 51.7822 5.50098C52.6117 5.50098 53.3158 5.81999 53.8945 6.45801C54.4733 7.09147 54.7627 7.99837 54.7627 9.17871C54.7627 10.7738 54.3457 11.9131 53.5117 12.5967C52.9831 13.0296 52.3678 13.2461 51.666 13.2461C51.1146 13.2461 50.652 13.1253 50.2783 12.8838C50.0596 12.7471 49.8158 12.5124 49.5469 12.1797V15.9189H48.3164V5.71289Z" fill="black"/>
<path d="M25 26L30 31L35 26L37 27L30 34L23 27L25 26Z" fill="black"/>
</svg>
