<svg width="22" height="19" viewBox="0 0 22 19" fill="none" xmlns="http://www.w3.org/2000/svg">
<path d="M21 1.12844C20.1294 1.753 19.1656 2.23069 18.1455 2.54311C17.5979 1.90282 16.8703 1.449 16.0609 1.24302C15.2516 1.03705 14.3995 1.08886 13.6201 1.39145C12.8406 1.69404 12.1713 2.23281 11.7027 2.93489C11.2341 3.63697 10.9888 4.46849 11 5.31698V6.24161C9.40239 6.28374 7.81934 5.92336 6.39183 5.19257C4.96431 4.46178 3.73665 3.38326 2.81818 2.05306C2.81818 2.05306 -0.818182 10.3747 7.36364 14.0732C5.49139 15.3658 3.26105 16.0139 1 15.9224C9.18182 20.5455 19.1818 15.9224 19.1818 5.28925C19.181 5.03169 19.1566 4.77478 19.1091 4.52181C20.0369 3.59117 20.6917 2.41617 21 1.12844Z" fill="white" stroke="white" stroke-linecap="round" stroke-linejoin="round"/>
</svg>
